<svg xmlns="http://www.w3.org/2000/svg" xml:space="preserve" width="1500" height="1500" data-id="lg_jUGyU5UH9TwiFDkjCa" data-version="1" viewBox="0 0 1500 1500"><path fill="#fff" stroke="transparent" d="M0 0h1500v1500H0z"/><g data-padding="20"><g transform="translate(-374.62 -387.138)scale(1.47356)"><g opacity=".5"><path d="M536.46 754.094h-7.598q-1.458-5.605-4.487-10.822l5.346-5.346a1.62 1.62 0 0 0 0-2.268l-13.657-13.672a1.62 1.62 0 0 0-2.3 0l-5.346 5.346a43.7 43.7 0 0 0-10.822-4.553v-7.565a1.62 1.62 0 0 0-.47-1.134c-.308-.324-.729-.55-1.134-.486l-19.44.032a1.62 1.62 0 0 0-1.62 1.62v7.582q-5.637 1.458-10.854 4.504l-5.362-5.346a1.62 1.62 0 0 0-2.268 0l-13.657 13.656a1.62 1.62 0 0 0 0 2.3l5.346 5.347a43.7 43.7 0 0 0-4.52 10.805h-7.581a1.62 1.62 0 0 0-1.62 1.62v9.752a1.62 1.62 0 0 0 1.62 1.62h21.238a1.62 1.62 0 0 0 1.62-1.62c0-15.066 12.264-27.345 27.346-27.345s27.345 12.263 27.345 27.345a1.62 1.62 0 0 0 1.62 1.62h21.222a1.62 1.62 0 0 0 1.62-1.62v-9.752a1.62 1.62 0 0 0-1.62-1.62m-1.62 9.752h-18.014c-.842-16.119-14.224-28.965-30.537-28.965s-29.695 12.846-30.537 28.965h-18.063v-6.512h7.225a1.62 1.62 0 0 0 1.588-1.247q1.458-6.383 5.054-12.199a1.62 1.62 0 0 0-.227-2.009l-5.086-5.087 11.356-11.356 5.087 5.087a1.62 1.62 0 0 0 2.008.227 40.5 40.5 0 0 1 12.215-5.07 1.62 1.62 0 0 0 1.264-1.588v-7.226l16.2-.016v7.21a1.62 1.62 0 0 0 1.263 1.587 40.5 40.5 0 0 1 12.215 5.103 1.62 1.62 0 0 0 2.009-.227l5.087-5.087 11.356 11.34-5.087 5.103a1.62 1.62 0 0 0-.227 2.01 40.5 40.5 0 0 1 5.055 12.198 1.62 1.62 0 0 0 1.587 1.247h7.226Z" opacity=".5"/><path d="M529.98 783.27a8.1 8.1 0 0 0-1.62 16.038v5.006a1.62 1.62 0 0 1-1.62 1.62h-30.91a9.72 9.72 0 0 0-3.094-5.589v-39.739h3.467a6.48 6.48 0 1 0 0-3.24h-3.467a3.24 3.24 0 0 0-3.24 3.24v37.811a9.72 9.72 0 0 0-6.48 0v-37.843a3.24 3.24 0 0 0-3.24-3.24l-3.467.016a6.48 6.48 0 1 0 0 3.24h3.467v39.755a9.72 9.72 0 0 0-3.078 5.59h-30.942a1.62 1.62 0 0 1-1.62-1.62v-5.023a8.1 8.1 0 1 0-3.24 0v5.022a4.86 4.86 0 0 0 4.86 4.86h30.91a9.72 9.72 0 0 0 19.148 0h30.91a4.86 4.86 0 0 0 4.86-4.86v-5.022a8.1 8.1 0 0 0-1.62-16.038m-27.54-27.524a3.24 3.24 0 1 1 0 6.48 3.24 3.24 0 0 1 0-6.48m-32.384 6.48a3.24 3.24 0 1 1 0-6.48 3.24 3.24 0 0 1 0 6.48m-32.384 29.16a4.86 4.86 0 1 1 9.72 0 4.86 4.86 0 0 1-9.72 0m48.6 22.664a6.48 6.48 0 1 1 .016-12.96 6.48 6.48 0 0 1-.016 12.96m43.724-17.82a4.86 4.86 0 1 1 0-9.72 4.86 4.86 0 0 1 0 9.72" opacity=".5"/></g><rect width="525.458" height="97.18" x="79.431" y="323.622" fill="none" rx="0" ry="0" transform="translate(487.09 409)"/><path d="M584.33 808.232H569.8v-73.91h19.53q6.13 0 9.72 2.73t5.15 7.77q1.55 5.04 1.55 12.01 0 6.72-1.3 11.69-1.3 4.98-4.64 7.71t-9.47 2.73h-6.01Zm0-60.43v17.89h.84q4.12 0 5.04-2.31.93-2.31.93-6.8 0-4.2-.91-6.49-.9-2.29-4.26-2.29Zm44.72 60.43h-15.29v-62.99h15.29v7.01q1.09-3.65 3.86-5.71t6.97-2.06v12.56q-1.85 0-4.41.4t-4.49 1.09-1.93 1.53Zm36.45.68q-18.82 0-18.82-19.53v-25.28q0-8.9 5-14.21t13.82-5.31q8.86 0 13.85 5.31 5 5.31 5 14.21v25.28q0 19.53-18.85 19.53m0-11.59q1.89 0 2.7-1.37.82-1.36.82-3.46v-30.78q0-5.5-3.52-5.5-3.53 0-3.53 5.5v30.78q0 2.1.82 3.46.82 1.37 2.71 1.37m43.05 10.91h-15.03v-62.99h14.69v7.3q1.01-3.86 3.45-5.92 2.43-2.05 7.13-2.05 3.78 0 6.45 1.74t3.76 4.6q1.72-3.11 4.05-4.73 2.33-1.61 6.66-1.61 5.25 0 8.08 2.24 2.83 2.25 3.95 6.22 1.11 3.97 1.11 9.17v46.03h-14.99v-46.28q0-6.09-3.11-6.09-1.64 0-2.52 1.11-.88 1.12-1.22 2.76-.33 1.63-.33 3.27v45.23h-14.99v-46.28q0-1.97-.49-3.95-.48-1.97-2.45-1.97-1.68 0-2.61 1.22-.92 1.22-1.26 3-.33 1.78-.33 3.51Zm69.07 10.49h-15.29v-73.48h15.29v6.72q1.38-3.49 3.84-5.44t7.03-1.95q6.18 0 8.72 4.49t2.54 11.76v30.99q0 4.83-1.37 8.71-1.36 3.88-4.28 6.13t-7.62 2.25q-6.13 0-8.86-7.39Zm3.57-21.54q2.35 0 2.83-2.35t.48-5.79v-24.61q0-3.49-.48-5.82t-2.83-2.33q-2.44 0-3.01 2.37-.56 2.38-.56 5.78v24.61q0 3.4.56 5.77.57 2.37 3.01 2.37m40.81 11.72q-6.09 0-8.21-2.58-2.12-2.59-2.12-7.92v-39.26h-4.24v-11.47h4.24v-13.35h14.62v13.35h4.24v11.47h-4.24v35.73q0 1.56.5 2.19t1.93.63q1.01 0 1.81-.17v10.24q-.51.17-3.15.66-2.65.48-5.38.48m29.52-.67h-14.36l7.14-73.91h25.07l7.01 73.91H862.4l-1.05-11.93h-8.9Zm4.79-61.31-2.81 37.58h6.72l-3.24-37.58Zm43.25 61.31h-15.28v-62.99h15.28v7.01q1.1-3.65 3.87-5.71t6.97-2.06v12.56q-1.85 0-4.41.4t-4.49 1.09q-1.94.69-1.94 1.53Zm35.78.68q-6.72 0-10.71-2.52t-5.71-7.27q-1.72-4.74-1.72-11.42v-25.32q0-8.78 5.04-13.29t13.86-4.51q18.14 0 18.14 17.8v4.58q0 8.31-.17 11.17h-21.84v12.18q0 1.68.21 3.29.21 1.62.95 2.67.73 1.05 2.37 1.05 2.35 0 2.94-2.04t.59-5.31v-6.05h14.95v3.57q0 7.06-1.74 11.82-1.75 4.77-5.88 7.18-4.14 2.42-11.28 2.42m-3.19-46.74v8.48h7.14v-8.48q0-3.4-.84-4.89t-2.52-1.49q-1.81 0-2.79 1.43-.99 1.42-.99 4.95m46.2 46.06h-15.03v-62.99h15.03v8.02q.84-3.61 3.13-6.15t6.36-2.54q6.55 0 9.51 4.03t2.96 11.04v48.59h-14.82v-47.04q0-1.84-.75-3.42-.76-1.57-2.61-1.57-1.72 0-2.54 1.19-.82 1.2-1.03 2.99-.21 1.78-.21 3.54Zm42.91.68q-5.25 0-8-2.44-2.75-2.43-3.76-6.67-1.01-4.25-1.01-9.62 0-5.75 1.14-9.43 1.13-3.67 3.88-6.02 2.75-2.36 7.58-3.99l9.32-3.19v-6.47q0-5.08-3.31-5.08-3.03 0-3.03 4.11v3.78h-14.61q-.04-.33-.04-.86v-1.2q0-9.4 4.43-13.33 4.43-3.92 14.04-3.92 5.04 0 9.03 1.78 3.99 1.79 6.32 5.27 2.33 3.49 2.33 8.61v48h-14.95v-7.48q-1.09 3.95-3.61 6.05t-5.75 2.1m5.92-11.68q1.85 0 2.52-1.55t.67-3.36v-17.55q-3.11 1.26-4.83 3.17t-1.72 5.6v8.11q0 5.58 3.36 5.58m-534.948-26.775h6.109a10.43 10.43 0 0 0-8.821-8.82v6.108a4.47 4.47 0 0 1 2.712 2.712m6.109 2.98h-6.11a4.47 4.47 0 0 1-2.711 2.712v6.11a10.43 10.43 0 0 0 8.82-8.822m-10.31-2.98a1.49 1.49 0 1 0 0 2.98 1.49 1.49 0 1 0 0-2.98"/><path d="M501.887 758.09a19.37 19.37 0 0 0-13.857-5.662c-5.14 0-9.923 1.937-13.559 5.41l3.874 4.841a13.35 13.35 0 0 1 20.845 1.818h24.123l-1.117-5.96h-19.877Zm-.447 13.857a13.41 13.41 0 0 1-9.998 12.963l9.7 8.627a50.66 50.66 0 0 1 23.93-19.564l-1.208-6.496h-23.199q.745 2.116.775 4.47m-32.422-20.935 3.59 4.5a22.4 22.4 0 0 1 5.439-3.77l-2.205-5.334q-3.725 1.788-6.824 4.62m8.701 22.41a10.43 10.43 0 0 0 8.821 8.82v-6.109a4.47 4.47 0 0 1-2.712-2.712Z"/><path d="M486.54 761.636a10.43 10.43 0 0 0-8.82 8.821h6.108a4.47 4.47 0 0 1 2.712-2.712Zm-11.518 37.101-.402.03h-2.98v5.543l-11.83 3.948a8.88 8.88 0 0 0-5.93 6.9h30.142q.73-1.849 1.818-3.488l-7.987-4.425Z"/><path d="M456.248 791.734a4.47 4.47 0 0 0 4.44 4.068h13.932c4.202 0 8.195-2.012 10.728-5.364l2.384 1.788a16.4 16.4 0 0 1-9.685 6.17l2.28 6.823 7.36 4.082a18.77 18.77 0 0 1 12.263-5.99v-6.853l-12.516-11.116a13.41 13.41 0 0 1-10.937-20.19l-10.132-12.664-12.665-1.937q-1.34 3.114-2.086 6.511H462.7a5.96 5.96 0 0 1 5.96 5.96v1.49a8.94 8.94 0 0 1-8.94 8.94h-8.94v4.887l4.38 1.46Z"/><path d="M465.68 764.497v-1.49a2.98 2.98 0 0 0-2.98-2.98h-11.607q-.194 1.49-.268 2.98h5.915v2.98h-5.96v4.47h8.94a5.96 5.96 0 0 0 5.96-5.96m-5.96-1.49h2.98v2.98h-2.98Zm41.704 43.21a15.79 15.79 0 0 0-14.17 8.94h28.325a15.79 15.79 0 0 0-14.155-8.94m-14.884-62.505q-4.127.223-7.942 1.564l2.206 5.32q2.8-.94 5.736-1.133Zm24.555 11.86q-1.37-1.937-3.04-3.62a28.3 28.3 0 0 0-7.837-5.514l-2.205 5.305q2.98 1.445 5.513 3.83Zm-21.575-11.86v5.75q2.92.195 5.737 1.133l2.205-5.319q-3.815-1.34-7.942-1.564"/><path d="M488.03 740.657a31.14 31.14 0 0 1 26.641 14.9h6.84a35.97 35.97 0 0 0-34.762-26.82c-13.708 0-25.628 7.688-31.693 18.983l11.265 1.728a31 31 0 0 1 21.709-8.79"/></g><path fill="transparent" stroke="transparent" stroke-width="1.52" d="M250 661.854h1000v176.292H250z"/></g></svg>