<!-- <svg xmlns="http://www.w3.org/2000/svg" fill="none" viewBox="0 0 1588 400"><path fill="#20808d" fill-rule="evenodd" d="m101.008 42 89.982 82.905V42.191h17.516v83.085L298.891 42v94.524H336v136.342h-36.995v84.169l-90.499-79.51v80.423H190.99v-79.112L101.11 358v-85.134H64V136.524h37.008V42Zm76.777 111.826h-96.27v101.738h19.573v-32.092l76.697-69.646Zm-59.16 77.323v88.243l72.365-63.737v-90.234l-72.365 65.728Zm90.385 23.663v-89.476l72.386 65.732v41.798h.093v45.625l-72.479-63.679Zm89.995.752h19.479V153.826h-95.552l76.073 68.925v32.813Zm-17.63-119.04V81.798l-59.398 54.726h59.398Zm-103.454 0h-59.397V81.798l59.397 54.726Z" clip-rule="evenodd"/><path fill="#fff" d="M768.761 134.448h11.121v22.918h-14.396c-11.282 0-19.696 2.714-25.273 8.158-5.544 5.427-8.332 14.353-8.332 26.76v75.148h-22.728V134.971h22.728v21.137c0 1.193.6 1.782 1.767 1.782.665 0 1.167-.164 1.524-.507.356-.344.664-1.014 1.021-2.044 4.377-13.911 15.255-20.875 32.584-20.875h-.016v-.016Zm151.184 28.395c5.966 10.609 8.965 23.393 8.965 38.334 0 14.941-2.983 27.725-8.965 38.334-5.982 10.61-13.731 18.554-23.247 23.818-9.515 5.264-19.745 7.896-30.687 7.896-21.561 0-36.718-8.664-45.472-25.992-.665-1.357-1.524-2.044-2.529-2.044s-1.524.507-1.524 1.537v71.078h-22.728v-180.85h22.728v22.674c0 1.013.503 1.537 1.524 1.537s1.848-.671 2.529-2.044c8.754-17.328 23.911-25.992 45.472-25.992 10.942 0 21.172 2.632 30.687 7.896 9.516 5.264 17.249 13.208 23.247 23.818Zm-13.747 38.334c0-15.628-4.166-27.807-12.499-36.552-8.332-8.746-19.307-13.111-32.973-13.111s-24.641 4.381-32.973 13.111c-8.349 8.745-11.396 20.94-11.396 36.552 0 15.612 3.063 27.807 11.396 36.552 8.332 8.763 19.323 13.111 32.973 13.111 13.65 0 24.641-4.381 32.973-13.111 8.333-8.729 12.499-20.94 12.499-36.552ZM537.17 163.039c5.966 10.609 8.965 23.393 8.965 38.334 0 14.942-2.983 27.725-8.965 38.334-5.982 10.61-13.73 18.555-23.246 23.818-9.516 5.264-19.745 7.896-30.688 7.896-21.56 0-36.718-8.664-45.472-25.992-.664-1.357-1.523-2.043-2.529-2.043-1.005 0-1.523.506-1.523 1.536V316H411V135.151h22.728v22.673c0 1.014.502 1.537 1.524 1.537 1.021 0 1.848-.67 2.529-2.044 8.754-17.328 23.911-25.992 45.472-25.992 10.942 0 21.171 2.632 30.687 7.896 9.516 5.264 17.249 13.209 23.247 23.818h-.017Zm-13.763 38.334c0-15.628-4.166-27.806-12.498-36.552-8.333-8.73-19.324-13.111-32.974-13.111-13.649 0-24.64 4.381-32.973 13.111-8.332 8.762-11.396 20.941-11.396 36.552 0 15.612 3.064 27.807 11.396 36.553 8.333 8.762 19.307 13.11 32.973 13.11s24.641-4.381 32.974-13.11c8.332-8.73 12.498-20.941 12.498-36.553Zm145.575 23.982h23.993c-3.194 12.407-9.727 23.147-19.567 32.22-9.857 9.089-23.96 13.617-42.327 13.617-13.812 0-25.97-2.844-36.491-8.533s-18.643-13.781-24.382-24.325c-5.738-10.527-8.591-22.919-8.591-37.19 0-14.271 2.788-26.662 8.332-37.19 5.544-10.527 13.342-18.636 23.36-24.324 10.019-5.689 21.755-8.534 35.227-8.534 13.471 0 24.64 2.812 33.978 8.403 9.354 5.607 16.324 13.045 20.961 22.281 4.636 9.269 6.938 19.404 6.938 30.439v15.284h-104.82c.826 13.242 5.268 23.786 13.26 31.583 7.992 7.814 18.74 11.721 32.212 11.721 10.942 0 19.339-2.239 25.143-6.751 5.803-4.512 10.051-10.74 12.758-18.734l.016.033Zm-83.859-36.929h79.32c0-11.541-2.95-20.597-8.851-27.136-5.901-6.523-15.157-9.809-27.786-9.809-11.785 0-21.431 3.188-28.92 9.564-7.49 6.359-12.077 15.497-13.763 27.381ZM947.244 267.4h22.744V84h-22.744v183.416-.016Zm319.646-146.913h26.56V91.814h-26.56v28.673Zm98.06 127.182c-4.13.425-6.63.637-7.45.637-1.17 0-2.13-.343-2.79-1.03-.67-.67-1.02-1.602-1.02-2.812 0-.833.22-3.351.65-7.519.4-4.152.63-10.577.63-19.225v-63.378h32.42l-6.39-19.404h-26.02v-35.67h-22.72v35.654h-24.73v19.404h24.73v69.737c0 14.615 3.55 25.485 10.61 32.613 7.07 7.127 17.85 10.707 32.35 10.707h17.68v-20.368h-8.85c-8.59 0-14.95.212-19.08.637l-.02.017Zm137.39-112.731-37.64 111.145c-.5 1.373-1.3 3.155-3.87 3.155-2.58 0-3.39-1.782-3.9-3.155l-37.64-111.145h-23.18L1439.7 267.4h15.42c1 0 1.77.098 2.29.261.5.164.92.589 1.26 1.275.66 1.014.58 2.55-.26 4.578l-7.07 19.355c-1.02 2.55-2.95 3.825-5.8 3.825-1.02 0-3.37-.213-7.07-.638-3.71-.425-8.49-.637-14.39-.637h-18.45v20.368h24.25c14.15 0 22.66-2.419 29.99-7.258 7.33-4.838 13-13.372 17.05-25.599L1524 140.022v-5.084h-21.66Zm-312.38 49.418-35.62-49.418h-25.01v5.084l42.68 57.313-52.04 64.964v5.084h25.52l41.43-53.243 38.65 53.243h24.51v-5.084l-45.23-61.138 49.03-60.877v-5.346h-25.52l-38.39 49.418h-.01Zm79.35 83.044h22.74V134.954h-22.74v132.462-.016Zm-149.65-42.045c-3.21 12.407-9.72 23.147-19.56 32.22-9.86 9.089-23.96 13.617-42.33 13.617-13.81 0-25.97-2.844-36.49-8.533-10.54-5.689-18.64-13.781-24.381-24.325-5.723-10.527-8.576-22.919-8.576-37.19 0-14.271 2.788-26.662 8.333-37.19 5.564-10.527 13.344-18.636 23.364-24.324 10.01-5.689 21.75-8.534 35.24-8.534 13.49 0 24.64 2.812 33.99 8.403 9.34 5.607 16.33 13.045 20.96 22.281 4.64 9.269 6.94 19.404 6.94 30.439v15.284h-104.83c.84 13.242 5.26 23.786 13.26 31.583 7.99 7.814 18.74 11.721 32.21 11.721 10.94 0 19.34-2.239 25.14-6.751 5.8-4.512 10.05-10.74 12.74-18.734h24.01l-.02.033Zm-107.28-36.929h79.32c0-11.541-2.95-20.597-8.83-27.136-5.91-6.523-15.16-9.809-27.79-9.809-11.79 0-21.43 3.188-28.92 9.564-7.49 6.359-12.09 15.497-13.76 27.381h-.02Z"/></svg>

 -->


 <svg xmlns="http://www.w3.org/2000/svg" id="Layer_1" data-name="Layer 1" viewBox="0 0 149.82 36">
  <defs>
    <style>
      .cls-1 {
        fill: none;
        stroke: #20808d;
        stroke-miterlimit: 10;
      }

      .cls-2 {
        fill: #13343b;
        stroke-width: 0px;
      }
    </style>
  </defs>
  <path class="cls-1" d="m23.566,1.398l-9.495,9.504h9.495V1.398v2.602V1.398Zm-9.496,9.504L4.574,1.398v9.504h9.496Zm-.021-10.902v36m9.517-15.596l-9.495-9.504v13.625l9.495,9.504v-13.625Zm-18.991,0l9.496-9.504v13.625l-9.496,9.504v-13.625ZM.5,10.9v13.57h4.074v-4.066l9.496-9.504H.5Zm13.57,0l9.495,9.504v4.066h4.075v-13.57h-13.57Z"/>
  <path class="cls-2" d="m55.46,13.028c.593-1.109,1.422-1.963,2.491-2.564,1.067-.599,2.319-.899,3.755-.899s2.625.295,3.62.886c.996.591,1.741,1.374,2.234,2.349.493.976.74,2.045.74,3.207v1.61h-11.171c.09,1.396.561,2.506,1.413,3.329.852.824,1.996,1.235,3.433,1.235,1.166,0,2.06-.237,2.678-.711.62-.474,1.072-1.131,1.36-1.973h2.558c-.341,1.306-1.036,2.439-2.086,3.396-1.049.958-2.553,1.436-4.509,1.436-1.472,0-2.769-.3-3.891-.899-1.121-.599-1.988-1.454-2.598-2.564-.61-1.11-.915-2.416-.915-3.92s.296-2.809.889-3.919h-.001Zm10.149,2.576c0-1.217-.314-2.169-.942-2.859-.628-.689-1.615-1.033-2.962-1.033-1.256,0-2.284.335-3.082,1.006-.799.671-1.288,1.634-1.467,2.886h8.453Zm6.047-5.637v2.228c0,.126.063.188.189.188.072,0,.125-.018.162-.054.037-.036.072-.107.107-.214.466-1.467,1.624-2.201,3.473-2.201h1.184v2.415h-1.535c-1.203,0-2.1.286-2.693.859-.593.573-.889,1.512-.889,2.819v7.919h-2.423v-13.96h2.425Zm19.342,11.019c-.637,1.118-1.463,1.955-2.477,2.509-1.014.554-2.105.832-3.271.832-2.297,0-3.913-.912-4.846-2.738-.072-.142-.162-.214-.269-.214s-.162.054-.162.161v7.489h-2.423V9.968h2.423v2.389c0,.107.054.161.162.161s.197-.072.269-.214c.933-1.826,2.549-2.738,4.846-2.738,1.166,0,2.257.278,3.271.832,1.014.554,1.839,1.391,2.477,2.51.637,1.118.956,2.466.956,4.039s-.319,2.921-.956,4.04Zm-2.8-7.892c-.889-.922-2.06-1.383-3.513-1.383s-2.625.461-3.513,1.383c-.889.922-1.215,2.206-1.215,3.852s.326,2.931,1.215,3.852c.889.922,2.06,1.383,3.513,1.383s2.625-.46,3.513-1.383c.889-.922,1.333-2.206,1.333-3.852s-.444-2.93-1.333-3.852Zm7.272-8.496v19.327h-2.423V4.6h2.423Zm1.995,8.429c.592-1.109,1.422-1.963,2.491-2.564,1.067-.599,2.319-.899,3.754-.899s2.626.295,3.621.886c.996.591,1.741,1.374,2.234,2.349.494.976.74,2.045.74,3.207v1.61h-11.171c.09,1.396.561,2.506,1.413,3.329.852.824,1.996,1.235,3.433,1.235,1.166,0,2.059-.237,2.678-.711.62-.474,1.072-1.131,1.36-1.973h2.558c-.341,1.306-1.037,2.439-2.086,3.396-1.049.958-2.553,1.436-4.509,1.436-1.472,0-2.769-.3-3.891-.899-1.121-.599-1.988-1.454-2.598-2.564-.61-1.11-.915-2.416-.915-3.92s.296-2.809.889-3.919h-.001Zm10.149,2.576c0-1.217-.314-2.169-.942-2.859-.628-.689-1.615-1.033-2.962-1.033-1.255,0-2.284.335-3.082,1.006-.799.671-1.287,1.634-1.467,2.886h8.453Zm1.613,7.785l5.545-6.846-4.549-6.039v-.537h2.665l3.797,5.207,4.092-5.207h2.718v.564l-5.222,6.416,4.819,6.442v.537h-2.611l-4.119-5.61-4.414,5.61h-2.719v-.537h-.002Zm17.786-17.965v3.021h-2.83v-3.021h2.83Zm-.147,18.503h-2.424v-13.959h2.424v13.959Zm.764-13.959h2.636v-3.758h2.424v3.758h2.774l.681,2.046h-3.455v6.678c0,.912-.023,1.588-.068,2.027-.045.439-.067.703-.067.792,0,.126.035.224.107.295.072.072.17.107.297.107.089,0,.354-.022.794-.067.439-.045,1.117-.067,2.033-.067h.942v2.147h-1.884c-1.544,0-2.693-.375-3.446-1.128-.753-.752-1.131-1.896-1.131-3.436v-7.349h-2.635v-2.046h-.002Zm8.564,0h2.47l4.011,11.711c.055.144.14.333.415.333s.36-.19.414-.333l4.011-11.711h2.304v.537l-5.018,15.059c-.431,1.289-1.036,2.188-1.816,2.698-.781.51-1.688.765-3.197.765h-2.584v-2.147h1.966c.628,0,1.139.022,1.534.067.394.045.646.067.754.067.305,0,.511-.134.62-.402l.754-2.04c.09-.214.098-.375.027-.484-.036-.072-.08-.117-.134-.134-.054-.018-.135-.027-.242-.027h-1.642l-4.645-13.958h-.002Zm-83.162,11.042c-.637,1.118-1.463,1.955-2.477,2.509-1.014.554-2.105.832-3.271.832-2.297,0-3.913-.912-4.846-2.738-.072-.142-.162-.214-.269-.214s-.162.054-.162.161v7.489h-2.423V9.991h2.423v2.389c0,.107.054.161.162.161s.197-.072.269-.214c.932-1.826,2.549-2.738,4.846-2.738,1.166,0,2.257.278,3.271.832,1.014.554,1.839,1.391,2.477,2.509.637,1.118.956,2.466.956,4.04s-.319,2.921-.956,4.039Zm-2.8-7.892c-.889-.922-2.06-1.383-3.513-1.383s-2.625.461-3.513,1.383c-.889.922-1.215,2.206-1.215,3.852s.326,2.931,1.215,3.852c.889.922,2.06,1.383,3.513,1.383s2.625-.46,3.513-1.383c.889-.922,1.333-2.206,1.333-3.852s-.444-2.93-1.333-3.852Z"/>
</svg>