<svg class="pl-logo-svg" xmlns="http://www.w3.org/2000/svg" style="margin-top:7px; scale:1;" xmlns:xlink="http://www.w3.org/1999/xlink" viewBox="0 0 2740.923828125 592.29541015625" fill="#fff">
    <path class="logo-icon" d="M441.902 15.3081L420.719 66.4467L420.718 66.4463L383.763 51.1386L404.946 8.86917e-05L441.902 15.3081ZM213.675 28.8774L283.33 197.034L283.33 47.5859L323.33 47.5859L323.33 197.033L367.584 90.1955L404.54 105.504L404.541 105.504L360.283 212.35L510.188 62.4445L538.472 90.7285L388.571 240.63L526.645 183.436L541.953 220.393L403.879 277.586L515.33 277.586L515.33 317.586L403.867 317.586L541.964 374.789L526.656 411.745L388.577 354.549L541.468 507.44L513.184 535.724L360.291 382.831L417.488 520.914L380.532 536.222L323.33 398.126L323.33 547.586L283.33 547.586L283.33 398.127L243.267 494.845L206.313 479.538L187.645 524.605L224.599 539.913L202.901 592.295L165.945 576.987L246.367 382.833L140.699 488.501L112.415 460.217L218.088 354.544L34.0038 430.796L18.6957 393.84L202.786 317.586L53.3296 317.586L53.3296 277.586L202.776 277.586L105.277 237.199L120.584 200.244L218.095 240.635L112.411 134.951L140.695 106.667L246.376 212.348L176.719 44.1854L213.675 28.8774ZM82.5773 184.501L15.3081 156.636L9.15527e-05 193.592L67.2693 221.457L82.5773 184.501ZM303.001 353.001C333.377 353.001 358.001 328.377 358.001 298.001C358.001 267.625 333.377 243.001 303.001 243.001C272.626 243.001 248.001 267.625 248.001 298.001C248.001 328.377 272.626 353.001 303.001 353.001ZM562.33 277.586L562.33 317.586L637.33 317.586L637.33 277.586L562.33 277.586Z" fill-rule="evenodd">
    </path>
    <path class="logo-text" d="M1087.82 190.118C1094.33 196.642 1102.54 199.904 1112.46 199.904C1122.69 199.904 1130.91 196.642 1137.1 190.118C1143.61 183.283 1146.87 174.894 1146.87 164.953C1146.87 155.321 1143.61 147.088 1137.1 140.253C1130.91 133.418 1122.69 130.001 1112.46 130.001C1102.54 130.001 1094.33 133.418 1087.82 140.253C1081.31 147.088 1078.06 155.321 1078.06 164.953C1078.06 174.894 1081.31 183.283 1087.82 190.118ZM811.078 133.722L811.078 461.335L874.311 461.335L874.311 339.703L939.869 339.703Q971.021 339.703 995.664 327.121Q1020.77 314.538 1035.18 291.703Q1049.6 268.402 1049.6 236.713Q1049.6 205.023 1035.18 182.188Q1020.77 158.887 995.664 146.305Q971.021 133.722 939.869 133.722L811.078 133.722ZM1413.86 133.722L1413.86 461.335L1626.81 461.335L1626.81 404.946L1477.1 404.946L1477.1 133.722L1413.86 133.722ZM874.311 185.45L874.311 287.975L933.36 287.975Q948.239 287.975 960.327 281.917Q972.416 275.858 979.39 264.674C984.04 256.907 986.365 247.587 986.365 236.713C986.365 226.15 984.04 216.985 979.39 209.217Q972.416 197.567 960.327 191.509Q948.239 185.45 933.36 185.45L874.311 185.45ZM1231.98 450.628C1250.27 460.88 1270.88 466.006 1293.82 466.006C1311.49 466.006 1327.76 462.744 1342.64 456.22C1357.52 449.696 1370.69 440.22 1382.16 427.793L1342.64 388.181C1336.75 395.016 1329.62 400.297 1321.25 404.026C1313.19 407.443 1304.05 409.152 1293.82 409.152C1282.66 409.152 1272.58 406.666 1263.59 401.695C1254.92 396.414 1247.94 389.268 1242.67 380.259C1237.71 370.938 1235.23 360.375 1235.23 348.569C1235.23 336.453 1237.71 326.045 1242.67 317.346C1247.94 308.336 1254.92 301.346 1263.59 296.375C1272.58 291.093 1282.66 288.452 1293.82 288.452C1303.74 288.452 1312.73 290.161 1320.78 293.579C1329.15 296.996 1336.28 301.967 1342.17 308.491L1381.23 268.88C1370.38 256.763 1357.52 247.443 1342.64 240.918C1327.76 234.394 1311.49 231.132 1293.82 231.132C1271.19 231.132 1250.58 236.413 1231.98 246.977C1213.69 257.229 1199.28 271.21 1188.74 288.918C1178.2 306.627 1172.93 326.666 1172.93 349.035C1172.93 371.093 1178.2 390.977 1188.74 408.686C1199.28 426.395 1213.69 440.375 1231.98 450.628ZM2331.29 451.094C2349.58 461.035 2370.5 466.006 2394.06 466.006C2412.35 466.006 2429.24 462.744 2444.74 456.22Q2468.45 446.434 2484.72 427.327L2448.92 391.443C2442.1 399.21 2434.04 405.113 2424.74 409.152C2415.45 412.88 2405.06 414.744 2393.59 414.744C2380.88 414.744 2369.72 412.103 2360.12 406.822C2350.51 401.229 2343.07 393.462 2337.8 383.521C2335.82 379.424 2334.23 375.054 2333.04 370.412L2497.28 370.006C2498.52 364.725 2499.29 360.064 2499.6 356.025C2500.22 351.676 2500.53 347.482 2500.53 343.443C2500.53 322.006 2495.73 302.899 2486.12 286.122Q2472.17 260.491 2447.06 246.045C2430.63 236.103 2411.57 231.132 2389.87 231.132Q2356.86 231.132 2329.89 246.977Q2302.93 262.355 2287.12 288.918C2276.89 306.317 2271.77 326.2 2271.77 348.569C2271.77 371.249 2277.04 391.443 2287.58 409.152C2298.43 426.861 2313 440.841 2331.29 451.094ZM2039.22 328.519L2039.22 461.335L2100.12 461.335L2100.12 328.519C2100.12 319.82 2101.98 312.364 2105.7 306.15C2109.42 299.937 2114.54 295.276 2121.05 292.17C2127.87 288.752 2135.15 287.043 2142.9 287.043C2154.99 287.043 2165.06 290.771 2173.12 298.228Q2185.67 308.946 2185.67 328.519L2185.67 461.335L2246.58 461.335L2246.58 318.733C2246.58 300.713 2242.71 285.179 2234.96 272.131C2227.21 259.082 2216.67 249.14 2203.34 242.305Q2183.35 231.587 2158.24 231.587C2141.5 231.587 2126.32 235.315 2112.68 242.771C2101.83 248.453 2092.66 256.098 2085.14 265.707C2078.19 255.834 2069.39 248.033 2058.74 242.305Q2039.68 231.587 2016.43 231.587C2000 231.587 1985.28 235.16 1972.26 242.305Q1961.84 247.779 1953.66 255.776L1953.66 236.247L1892.76 236.247L1892.76 461.335L1953.66 461.335L1953.66 328.519C1953.66 319.82 1955.52 312.364 1959.24 306.15C1962.96 299.937 1968.08 295.276 1974.59 292.17C1981.1 288.752 1988.38 287.043 1996.44 287.043C2008.53 287.043 2018.6 290.771 2026.66 298.228Q2039.22 308.946 2039.22 328.519ZM2680.02 332.247L2680.02 461.335L2740.92 461.335L2740.92 318.733Q2740.92 295.898 2729.76 276.325C2722.33 262.966 2712.1 252.247 2699.08 244.169C2686.06 235.781 2671.34 231.587 2654.91 231.587Q2629.34 231.587 2608.88 242.771Q2598.14 248.779 2589.81 257.341L2589.81 236.247L2528.91 236.247L2528.91 461.335L2589.81 461.335L2589.81 332.247C2589.81 323.238 2591.67 315.315 2595.39 308.48C2599.42 301.645 2604.85 296.364 2611.67 292.636C2618.49 288.907 2626.24 287.043 2634.91 287.043Q2654.91 287.043 2667.46 299.626Q2680.02 312.208 2680.02 332.247ZM1699.19 453.412C1714.69 461.8 1732.35 465.994 1752.19 465.994C1772.03 465.994 1789.54 461.955 1804.73 453.878C1820.23 445.489 1832.16 433.839 1840.53 418.926C1849.21 404.013 1853.55 386.615 1853.55 366.732L1853.55 236.246L1792.64 236.246L1792.64 365.334Q1792.64 386.305 1781.95 397.955C1774.82 405.722 1764.9 409.606 1752.19 409.606Q1739.64 409.606 1730.34 404.479C1724.14 401.062 1719.49 396.091 1716.39 389.567C1713.29 382.732 1711.74 374.654 1711.74 365.334L1711.74 236.246L1650.37 236.246L1650.37 366.732Q1650.37 396.091 1663.39 418.46C1672.06 433.373 1684 445.023 1699.19 453.412ZM1081.78 236.254L1081.78 461.342L1143.15 461.342L1143.15 236.254L1081.78 236.254ZM2333.09 324.731C2334.18 320.611 2335.6 316.751 2337.33 313.152C2342.29 303.21 2349.27 295.598 2358.26 290.317C2367.25 284.724 2377.78 281.928 2389.87 281.928Q2407.08 281.928 2418.7 289.384C2426.76 294.045 2432.8 300.88 2436.83 309.889C2438.92 314.227 2440.58 319.069 2441.81 324.415L2333.09 324.731Z" fill-rule="evenodd">
    </path>
</svg>