<svg xmlns="http://www.w3.org/2000/svg" xmlns:xlink="http://www.w3.org/1999/xlink" version="1.1" width="1080" height="1080" viewBox="0 0 1080 1080" xml:space="preserve">
<g transform="matrix(2.12 0 0 2.12 550 420)">
<g vector-effect="non-scaling-stroke">
		<g transform="matrix(4.77 0 0 4.77 -0.07 -119.49)" id="svg_4">
<path style="stroke: none; stroke-width: 1; stroke-dasharray: none; stroke-linecap: butt; stroke-dashoffset: 0; stroke-linejoin: miter; stroke-miterlimit: 4; fill: rgb(0,0,0); fill-rule: nonzero; opacity: 0.25;" vector-effect="non-scaling-stroke" transform=" translate(-261.82, -178.34)" d="M 312.05 192.1 L 304.45 192.1 Q 302.99 186.5 299.96999999999997 181.28 L 305.30999999999995 175.93 C 305.92224176450077 175.3010604647416 305.92224176450077 174.29893953525843 305.30999999999995 173.67000000000002 L 291.6499999999999 159.99 C 291.34583368924604 159.68343671786042 290.9318543626661 159.51100832599943 290.4999999999999 159.51100832599943 C 290.0681456373337 159.51100832599943 289.6541663107538 159.68343671786042 289.3499999999999 159.99 L 284.00999999999993 165.34 C 280.62435841855535 163.34365781373708 276.98486963868936 161.81318887211137 273.18999999999994 160.78999999999996 L 273.18999999999994 153.22 C 273.18711131937346 152.79636844863816 273.01839163247087 152.3907232439575 272.7199999999999 152.09 C 272.4099999999999 151.76 271.9899999999999 151.54 271.5799999999999 151.6 L 252.13999999999993 151.63 C 251.71034928645986 151.63 251.29829594756353 151.80067808139196 250.99448701447773 152.1044870144778 C 250.6906780813919 152.4082959475636 250.51999999999992 152.82034928645993 250.51999999999992 153.25 L 250.51999999999992 160.83 Q 244.87999999999994 162.29000000000002 239.66999999999993 165.34 L 234.30999999999992 159.99 C 233.67983003209005 159.37124048163233 232.67016996790977 159.37124048163233 232.0399999999999 159.99 L 218.3799999999999 173.65 C 218.07343671786032 173.9541663107539 217.90100832599933 174.3681456373338 217.90100832599933 174.8 C 217.90100832599933 175.2318543626662 218.07343671786032 175.64583368924613 218.3799999999999 175.95000000000002 L 223.7299999999999 181.3 C 221.74573098758114 184.68096396956173 220.22542379900423 188.31355636704635 219.2099999999999 192.10000000000002 L 211.62999999999988 192.10000000000002 C 211.2003492864598 192.10000000000002 210.78829594756348 192.270678081392 210.48448701447768 192.57448701447782 C 210.18067808139185 192.87829594756363 210.00999999999988 193.29034928645996 210.00999999999988 193.72000000000003 L 210.00999999999988 203.47000000000003 C 210.00999999999988 203.8996507135401 210.18067808139185 204.31170405243643 210.48448701447768 204.61551298552223 C 210.78829594756348 204.91932191860806 211.2003492864598 205.09000000000003 211.62999999999988 205.09000000000003 L 232.85999999999987 205.09000000000003 C 233.28965071353994 205.09000000000003 233.70170405243627 204.91932191860806 234.00551298552207 204.61551298552223 C 234.3093219186079 204.31170405243643 234.47999999999988 203.8996507135401 234.47999999999988 203.47000000000003 C 234.47999999999988 188.41000000000003 246.7499999999999 176.13000000000002 261.82999999999987 176.13000000000002 C 276.90999999999985 176.13000000000002 289.1799999999999 188.39000000000001 289.1799999999999 203.47000000000003 C 289.1799999999999 203.8996507135401 289.3506780813919 204.31170405243643 289.6544870144777 204.61551298552223 C 289.9582959475635 204.91932191860806 290.3703492864598 205.09000000000003 290.7999999999999 205.09000000000003 L 312.01999999999987 205.09000000000003 C 312.44965071353994 205.09000000000003 312.86170405243627 204.91932191860806 313.16551298552207 204.61551298552223 C 313.4693219186079 204.31170405243643 313.6399999999999 203.8996507135401 313.6399999999999 203.47000000000003 L 313.6399999999999 193.72000000000003 C 313.6399999999999 193.29034928645996 313.4693219186079 192.87829594756363 313.16551298552207 192.57448701447782 C 312.86170405243627 192.270678081392 312.44965071353994 192.10000000000002 312.01999999999987 192.10000000000002 M 310.39999999999986 201.85000000000002 L 292.3799999999999 201.85000000000002 C 291.5399999999999 185.74 278.15999999999985 172.89000000000001 261.8499999999999 172.89000000000001 C 245.53999999999996 172.89000000000001 232.14999999999992 185.74 231.30999999999992 201.85000000000002 L 213.24999999999991 201.85000000000002 L 213.24999999999991 195.34000000000003 L 220.4699999999999 195.34000000000003 C 221.22399107897823 195.34706607336548 221.8831632380073 194.8329947040598 222.05999999999992 194.10000000000002 Q 223.51999999999992 187.71000000000004 227.10999999999993 181.90000000000003 C 227.5151169369904 181.2608499165591 227.42378246574043 180.42638497468437 226.88999999999993 179.89000000000004 L 221.79999999999993 174.80000000000004 L 233.1599999999999 163.44000000000005 L 238.23999999999992 168.53000000000006 C 238.7738956977734 169.0670240547867 239.60859238523858 169.16253661106384 240.24999999999991 168.76000000000005 C 244.01789824788534 166.41161495349613 248.14630251576236 164.69876637427058 252.46999999999994 163.69000000000005 C 253.21094795927513 163.52113907444405 253.73492494573952 162.8599300200961 253.7299999999999 162.10000000000005 L 253.7299999999999 154.87000000000006 L 269.9299999999999 154.86000000000007 L 269.9299999999999 162.07000000000008 C 269.9297636236372 162.82619187234496 270.45271587224113 163.48195739043558 271.1899999999999 163.6500000000001 C 275.51615510925006 164.67119312983502 279.64468924299695 166.39760961293211 283.4099999999999 168.7600000000001 C 284.0514076147613 169.1625366110639 284.88610430222644 169.06702405478677 285.4199999999999 168.53000000000011 L 290.4999999999999 163.4400000000001 L 301.8599999999999 174.78000000000011 L 296.7699999999999 179.89000000000013 C 296.2362175342594 180.42638497468442 296.14488306300944 181.26084991655918 296.5499999999999 181.90000000000012 C 298.88837001037996 185.6599608704065 300.59433861217803 189.77793260425176 301.5999999999999 194.09000000000015 C 301.7728653787502 194.82697123754605 302.4330500467005 195.34598434128057 303.1899999999999 195.34000000000012 L 310.4099999999999 195.34000000000012 L 310.3999999999999 201.8500000000001 z" stroke-linecap="round"/>
</g>
		<g transform="matrix(4.77 0 0 4.77 0 92.79)" id="svg_5">
<path style="stroke: none; stroke-width: 1; stroke-dasharray: none; stroke-linecap: butt; stroke-dashoffset: 0; stroke-linejoin: miter; stroke-miterlimit: 4; fill: rgb(0,0,0); fill-rule: nonzero; opacity: 0.25;" vector-effect="non-scaling-stroke" transform=" translate(-261.84, -222.85)" d="M 305.57 221.28 C 301.42357191164825 221.295619147294 297.9584804886854 224.44005688728802 297.5415610101507 228.56550086315934 C 297.12464153161596 232.69094483903064 299.89053749300814 236.46508935149225 303.95 237.31 L 303.95 242.32 C 303.95 242.74965071354006 303.779321918608 243.1617040524364 303.4755129855222 243.4655129855222 C 303.1717040524364 243.76932191860803 302.75965071354005 243.94 302.33 243.94 L 271.41999999999996 243.94 C 271.0491018636414 241.78178837428672 269.9602871567752 239.81205561979422 268.33 238.35 L 268.33 198.60999999999999 L 271.78999999999996 198.60999999999999 C 272.6057785899439 201.76949689304539 275.64363448893073 203.829518848005 278.88074083614407 203.41835243181123 C 282.1178471833574 203.00718601561746 284.544233020856 200.25311435977568 284.544233020856 196.98999999999998 C 284.544233020856 193.72688564022428 282.1178471833574 190.9728139843825 278.88074083614407 190.56164756818873 C 275.64363448893073 190.15048115199497 272.6057785899439 192.21050310695458 271.78999999999996 195.36999999999998 L 268.33 195.36999999999998 C 267.47069857291984 195.36999999999998 266.6465918951272 195.71135616278391 266.0389740289556 196.31897402895555 C 265.4313561627839 196.9265918951272 265.09 197.75069857291987 265.09 198.60999999999999 L 265.09 236.42 C 262.9935844632893 235.67880517890353 260.7064155367106 235.67880517890353 258.60999999999996 236.42 L 258.60999999999996 198.57999999999998 C 258.60999999999996 197.72069857291987 258.268643837216 196.8965918951272 257.66102597104435 196.28897402895555 C 257.05340810487274 195.6813561627839 256.2293014270801 195.33999999999997 255.36999999999995 195.33999999999997 L 251.89999999999995 195.35999999999999 C 251.08422141005602 192.20050310695459 248.04636551106918 190.14048115199498 244.80925916385584 190.55164756818874 C 241.57215281664253 190.9628139843825 239.14576697914393 193.7168856402243 239.14576697914393 196.98 C 239.14576697914393 200.2431143597757 241.57215281664253 202.99718601561747 244.80925916385584 203.40835243181124 C 248.04636551106918 203.819518848005 251.08422141005602 201.7594968930454 251.89999999999995 198.6 L 255.36999999999995 198.6 L 255.36999999999995 238.35 C 253.74340839349435 239.81354513848584 252.6582112252116 241.78310753157044 252.28999999999994 243.94 L 221.34999999999994 243.94 C 220.92034928645987 243.94 220.50829594756354 243.76932191860803 220.20448701447773 243.4655129855222 C 219.9006780813919 243.1617040524364 219.72999999999993 242.74965071354006 219.72999999999993 242.32 L 219.72999999999993 237.29999999999998 C 223.80424041589214 236.4683491576366 226.58692465392494 232.68672808986278 226.16898283934142 228.5495306411403 C 225.75104102475794 224.4123331924178 222.26825421181684 221.26365323338248 218.10999999999993 221.26365323338248 C 213.95174578818302 221.26365323338248 210.46895897524192 224.4123331924178 210.05101716065843 228.5495306411403 C 209.63307534607492 232.68672808986278 212.41575958410772 236.4683491576366 216.48999999999992 237.29999999999998 L 216.48999999999992 242.32 C 216.48999999999992 243.60895214062018 217.00203424417586 244.8451121573092 217.9134610434333 245.75653895656663 C 218.82488784269074 246.66796575582407 220.06104785937976 247.18 221.34999999999994 247.18 L 252.25999999999993 247.18 C 253.08461523617746 251.81929030309885 257.1179935479497 255.19897089971977 261.8299999999999 255.19897089971977 C 266.54200645205015 255.19897089971977 270.5753847638224 251.81929030309885 271.3999999999999 247.18 L 302.30999999999995 247.18 C 303.59895214062016 247.18 304.83511215730914 246.66796575582407 305.74653895656655 245.75653895656663 C 306.657965755824 244.8451121573092 307.16999999999996 243.60895214062018 307.16999999999996 242.32 L 307.16999999999996 237.29999999999998 C 311.2529884233909 236.47625738368063 314.0456539139453 232.6902127110464 313.62710287862575 228.54604073170984 C 313.2085518433062 224.4018687523733 309.71524425679365 221.2506916847795 305.54999999999995 221.26 M 278.00999999999993 193.73999999999998 C 279.16754055598636 193.73999993297403 280.23715216725975 194.35754042961815 280.81592246460167 195.35999994584216 C 281.3946927619436 196.36245946206617 281.3946927619436 197.59754053793378 280.81592246460167 198.6000000541578 C 280.23715216725975 199.6024595703818 279.16754055598636 200.22000006702592 278.00999999999993 200.21999999999997 C 276.2205974838137 200.21999989638684 274.7700001876081 198.7694025161862 274.7700001876081 196.97999999999996 C 274.7700001876081 195.19059748381375 276.2205974838137 193.7400001036131 278.00999999999993 193.73999999999998 M 245.62999999999994 200.21999999999997 C 244.47245944401354 200.22000006702592 243.40284783274015 199.6024595703818 242.8240775353982 198.6000000541578 C 242.24530723805628 197.59754053793378 242.24530723805628 196.36245946206617 242.8240775353982 195.35999994584216 C 243.40284783274015 194.35754042961815 244.47245944401354 193.73999993297403 245.62999999999994 193.73999999999998 C 247.41940251618615 193.7400001036131 248.86999981239177 195.19059748381375 248.86999981239177 196.97999999999996 C 248.86999981239177 198.7694025161862 247.41940251618615 200.21999989638684 245.62999999999994 200.21999999999997 M 213.24999999999994 229.37999999999997 C 213.24999996494697 227.64368920967763 214.17631072423467 226.03927186112548 215.6799999716767 225.1711164558454 C 217.1836892191187 224.3029610505653 219.0363107808812 224.3029610505653 220.5400000283232 225.17111645584538 C 222.04368927576522 226.03927186112548 222.97000003505292 227.64368920967763 222.96999999999994 229.37999999999997 C 222.96999994581273 232.06410384586147 220.79410384586146 234.2399999018853 218.10999999999996 234.2399999018853 C 215.42589615413843 234.2399999018853 213.25000005418715 232.06410384586147 213.24999999999994 229.37999999999997 M 261.84999999999997 252.03999999999996 C 258.2711948210964 252.03723857625081 255.3722385762508 249.13380517890351 255.37499999999994 245.55499999999998 C 255.37776142374912 241.9761948210964 258.2811948210964 239.0772385762508 261.85999999999996 239.07999999999996 C 265.4388051789035 239.0827614237491 268.3377614237491 241.9861948210964 268.335 245.56499999999994 C 268.3322385762508 249.1438051789035 265.42880517890353 252.0427614237491 261.84999999999997 252.03999999999996 M 305.56999999999994 234.21999999999997 C 303.83368920967763 234.22000003505295 302.2292718611255 233.29368927576525 301.3611164558454 231.79000002832322 C 300.49296105056527 230.28631078088122 300.49296105056527 228.43368921911872 301.3611164558454 226.92999997167672 C 302.2292718611254 225.4263107242347 303.8336892096776 224.499999964947 305.56999999999994 224.49999999999997 C 308.25410384586144 224.50000005418718 310.4299999018853 226.67589615413846 310.4299999018853 229.35999999999996 C 310.4299999018853 232.04410384586149 308.25410384586144 234.21999994581276 305.56999999999994 234.21999999999997" stroke-linecap="round"/>
</g>
		<g transform="matrix(4.77 0 0 4.77 51.48 21.87)" id="svg_8">
<path style="stroke: none; stroke-width: 1; stroke-dasharray: none; stroke-linecap: butt; stroke-dashoffset: 0; stroke-linejoin: miter; stroke-miterlimit: 4; fill: rgb(149,81,226); fill-rule: nonzero; opacity: 1;" vector-effect="non-scaling-stroke" transform=" translate(-272.63, -207.98)" d="M 277.48 196.1 C 273.8069415768641 192.42835232741396 268.8133009254298 190.38549933364538 263.62 190.43 C 258.48 190.43 253.70000000000002 192.37 250.06 195.84 L 253.93 200.69 C 256.7291433835773 197.72463432130715 260.73008340303954 196.2012128395849 264.79262205516187 196.5538840607044 C 268.85516070728426 196.9065552818239 272.53372927996224 199.09663914013 274.78000000000003 202.5 L 298.90000000000003 202.5 L 297.79 196.54 L 277.91 196.54 L 277.48 196.1 z M 277.03000000000003 209.95 C 277.0303660980863 216.04312183085256 272.92283228288363 221.37059318917042 267.03000000000003 222.92 L 276.73 231.54 C 282.4745045838851 222.68654370403715 290.8406310084277 215.84820551498356 300.65999999999997 211.98000000000002 L 299.45000000000005 205.48 L 276.26000000000005 205.48 Q 277.00000000000006 207.6 277.03000000000003 209.95 M 244.61 189.01999999999998 L 248.20000000000002 193.51999999999998 C 249.8166479317777 192.00089069848173 251.64998950999856 190.7303580238691 253.64000000000001 189.74999999999997 L 251.43 184.41999999999996 Q 247.71 186.19999999999996 244.61 189.03999999999996 M 253.31 211.44999999999996 C 253.9744401391194 216.01777107017688 257.56222892982305 219.60555986088056 262.13 220.26999999999995 L 262.13 214.15999999999994 C 260.86559113506473 213.70938294146458 259.87061705853534 212.71440886493517 259.42 211.44999999999993 L 253.31 211.44999999999993 z" stroke-linecap="round"/>
</g>
		<g transform="matrix(4.77 0 0 4.77 -76.48 109.75)" id="svg_9">
<path style="stroke: none; stroke-width: 1; stroke-dasharray: none; stroke-linecap: butt; stroke-dashoffset: 0; stroke-linejoin: miter; stroke-miterlimit: 4; fill: rgb(0,0,0); fill-rule: nonzero; opacity: 1;" vector-effect="non-scaling-stroke" transform=" translate(-245.8, -226.4)" d="M 262.13 199.64 C 257.56222892982305 200.30444013911938 253.9744401391194 203.89222892982306 253.31 208.45999999999998 L 259.42 208.45999999999998 C 259.87061705853534 207.19559113506475 260.86559113506473 206.20061705853533 262.13 205.74999999999997 L 262.13 199.63999999999996 z M 250.60999999999999 236.73999999999998 L 250.20999999999998 236.76999999999998 L 247.23 236.76999999999998 L 247.23 242.32 L 235.39999999999998 246.26 C 232.30295556049927 247.29747927898453 230.02544238862157 249.9513774269904 229.46999999999997 253.17 L 259.60999999999996 253.17 Q 260.34 251.32 261.42999999999995 249.67999999999998 L 253.43999999999994 245.24999999999997 L 250.60999999999993 236.73999999999998 z" stroke-linecap="round"/>
</g>
		<g transform="matrix(4.77 0 0 4.77 -51.9 69.35)" id="svg_10">
<radialGradient id="SVGID_svg_7_7" gradientUnits="objectBoundingBox" gradientTransform="matrix(1 0 0 1 0 0)" cx="0" cy="0" r="0.5" fx="0" fy="0">
<stop offset="0%" style="stop-color:rgb(252,252,252);stop-opacity: 1"/>
<stop offset="100%" style="stop-color:rgb(3,3,3);stop-opacity: 1"/>
</radialGradient>
<path style="stroke: none; stroke-width: 1; stroke-dasharray: none; stroke-linecap: butt; stroke-dashoffset: 0; stroke-linejoin: miter; stroke-miterlimit: 4; fill: url(#SVGID_svg_7_7); fill-rule: nonzero; opacity: 1;" vector-effect="non-scaling-stroke" transform=" translate(-250.95, -217.94)" d="M 231.84 229.74 C 232.04662108529106 232.03982168038434 233.97092374119563 233.80376578163018 236.28 233.81 L 250.21 233.81 C 254.41 233.81 258.40000000000003 231.8 260.94 228.44 L 263.32 230.23 C 260.9419775113077 233.38563535688328 257.50459072853346 235.57661432896145 253.64 236.39999999999998 L 255.92 243.23 L 263.28 247.31 C 266.47050890444615 243.84601247695625 270.8465941933164 241.70794144267137 275.53999999999996 241.32 L 275.53999999999996 234.45999999999998 L 263.02 223.34999999999997 C 258.3283415882368 223.128972062891 254.09427015769728 220.46943925487352 251.85822260214675 216.33899093405327 C 249.6221750465962 212.208542613233 249.7100967120725 207.20926812421237 252.08999999999997 203.15999999999997 L 241.95999999999998 190.49999999999997 L 229.29 188.55999999999997 Q 227.95 191.67 227.2 195.06999999999996 L 238.29 195.06999999999996 C 239.87069027944366 195.06999999999996 241.38663960032153 195.69792676857784 242.50435641587183 196.81564358412814 C 243.62207323142212 197.93336039967843 244.25 199.4493097205563 244.25 201.02999999999997 L 244.25 202.51999999999998 C 244.25 207.45742566348727 240.2474256634873 211.45999999999998 235.31 211.45999999999998 L 226.37 211.45999999999998 L 226.37 216.34999999999997 L 230.75 217.80999999999997 L 231.84 229.73999999999998 z" stroke-linecap="round"/>
</g>
		<g transform="matrix(4.77 0 0 4.77 -14.64 66.99)" id="svg_11">
<path style="stroke: none; stroke-width: 1; stroke-dasharray: none; stroke-linecap: butt; stroke-dashoffset: 0; stroke-linejoin: miter; stroke-miterlimit: 4; fill: rgb(113,113,252); fill-rule: nonzero; opacity: 1;" vector-effect="non-scaling-stroke" transform=" translate(-258.77, -217.44)" d="M 241.27 202.5 L 241.27 201.01 C 241.27 199.36419144550425 239.93580855449576 198.03 238.29000000000002 198.03 L 226.68 198.03 Q 226.49 199.52 226.41 201.01 L 232.32999999999998 201.01 L 232.32999999999998 203.98999999999998 L 226.36999999999998 203.98999999999998 L 226.36999999999998 208.45999999999998 L 235.30999999999997 208.45999999999998 C 236.89069027944365 208.45999999999998 238.4066396003215 207.8320732314221 239.5243564158718 206.7143564158718 C 240.6420732314221 205.5966396003215 241.26999999999998 204.08069027944367 241.26999999999998 202.49999999999997 M 235.30999999999997 201.00999999999996 L 238.28999999999996 201.00999999999996 L 238.28999999999996 203.98999999999995 L 235.30999999999997 203.98999999999995 L 235.30999999999997 201.00999999999996 z M 277.01 244.21999999999997 C 270.9647414458656 244.24176187983295 265.4625250742049 247.71316726886946 262.84 253.15999999999997 L 291.16999999999996 253.15999999999997 C 288.54905129132527 247.71640287109338 283.0516444263424 244.24558243515082 277.00999999999993 244.21999999999997 M 262.12999999999994 181.71999999999997 Q 257.99999999999994 181.93999999999997 254.18999999999994 183.27999999999997 L 256.38999999999993 188.59999999999997 Q 259.18999999999994 187.65999999999997 262.12999999999994 187.46999999999997 L 262.12999999999994 181.71999999999997 z M 286.68999999999994 193.57999999999998 Q 285.31999999999994 191.64 283.6499999999999 189.95999999999998 C 281.3688815851455 187.69102376574173 278.71754782995623 185.8276501699391 275.80999999999995 184.45 L 273.59999999999997 189.75 Q 276.58 191.2 279.11999999999995 193.58 L 286.68999999999994 193.58 z M 265.10999999999996 181.71999999999997 L 265.10999999999996 187.46999999999997 Q 268.03 187.65999999999997 270.84999999999997 188.59999999999997 L 273.04999999999995 183.27999999999997 Q 269.23999999999995 181.93999999999997 265.10999999999996 181.71999999999997" stroke-linecap="round"/>
</g>
		<g transform="matrix(4.77 0 0 4.77 9.71 -110.86)" id="svg_12">
<path style="stroke: none; stroke-width: 1; stroke-dasharray: none; stroke-linecap: butt; stroke-dashoffset: 0; stroke-linejoin: miter; stroke-miterlimit: 4; fill: rgb(127,0,255); fill-rule: nonzero; opacity: 1;" vector-effect="non-scaling-stroke" transform=" translate(-263.88, -180.15)" d="M 263.62 178.66 C 274.4922112259264 178.6355578962367 284.5899839132951 184.28333616357133 290.26 193.56 L 297.09999999999997 193.56 C 292.9455606789828 177.76550431956886 278.67172716713395 166.75214946376371 262.34 166.74 C 248.62999999999997 166.74 236.70999999999998 174.43 230.64999999999998 185.73000000000002 L 241.90999999999997 187.46 C 247.7187591410186 181.80372706968416 255.512310233823 178.64825428729122 263.61999999999995 178.67000000000002" stroke-linecap="round"/>
</g>
</g>
</g>
</svg>